# xmcd CD database file
#
# Track frame offsets:
#	150
#	4945
#	27482
#	48890
#	64325
#	83825
#	101427
#	120435
#	139102
#	159157
#	176057
#	206162
#	221557
#	242822
#
# Disc length: 3508 seconds
#
# Revision: 2
# Processed by: cddbd v1.5.1PL2 Copyright (c) Steve Scherf et al.
# Submitted via: CDex 1.51
#
DISCID=be0db20e
DTITLE=Cypress Hill - Stoned Raiders
DYEAR=2001
DGENRE=New Age
TTITLE0=Intro
TTITLE1=Trouble
TTITLE2=Kronologik
TTITLE3=Southland Killers
TTITLE4=Bitter
TTITLE5=Amplified
TTITLE6=It Ain't Easy
TTITLE7=Memories
TTITLE8=Psychodelic Vision
TTITLE9=Red Meth and Bee
TTITLE10=Lowrider
TTITLE11=Catastrophe
TTITLE12=L.I.F.E.
TTITLE13=Here Is Something You Can't Understand
EXTD=YEAR: 2001
EXTT0=
EXTT1=
EXTT2=
EXTT3=
EXTT4=
EXTT5=
EXTT6=
EXTT7=
EXTT8=
EXTT9=
EXTT10=
EXTT11=
EXTT12=
EXTT13=
PLAYORDER=
